<?xml version="1.0" encoding="UTF-8"?>
<svg id="livetype" xmlns="http://www.w3.org/2000/svg" viewBox="0 0 119.6 40">
  <defs>
    <style>
      .cls-1, .cls-2 {
        stroke-width: 0px;
      }

      .cls-3 {
        isolation: isolate;
      }

      .cls-2 {
        fill: #fff;
      }
    </style>
  </defs>
  <g>
    <g>
      <g>
        <path class="cls-1" d="m110.1,0H7.5C6.8,0,6.2.1,5.5.2c-.6.1-1.3.3-1.9.6s-1.1.7-1.6,1.2-.9,1-1.2,1.6-.5,1.3-.6,1.9c-.1.7-.2,1.4-.2,2v24.9c0,.7.1,1.3.2,2,.1.7.3,1.3.6,1.9.3.7.7,1.2,1.2,1.7s1,.9,1.6,1.2,1.2.5,1.9.6,1.3.2,2,.2h104.6c.7,0,1.3-.1,2-.2.7-.1,1.3-.3,1.9-.6s1.1-.7,1.6-1.2.9-1,1.2-1.6c.3-.6.5-1.2.6-1.9s.2-1.3.2-2V7.5c0-.7-.1-1.3-.2-2-.1-.7-.3-1.3-.6-1.9-.6-1.2-1.6-2.2-2.8-2.8-.6-.3-1.2-.5-1.9-.6-.7-.1-1.3-.2-2-.2h-.9c-.3,0-.7,0-1.1,0h0Z"/>
        <path class="cls-2" d="m8.4,39.1h-.9c-.6,0-1.3-.1-1.9-.2-.6-.1-1.1-.3-1.7-.5-.5-.3-1-.6-1.4-1-.4-.4-.8-.9-1-1.4-.3-.5-.4-1.1-.5-1.7-.1-.6-.2-1.2-.2-1.9V7.5c0-.6.1-1.3.2-1.9.1-.5.3-1.1.6-1.6s.6-1,1-1.4c.4-.4.9-.7,1.4-1,.5-.3,1.1-.4,1.7-.5s1.2-.2,1.9-.2h104.6c.6,0,1.2.1,1.9.2.6.1,1.1.3,1.7.5,1,.5,1.9,1.4,2.4,2.4.3.5.4,1.1.5,1.6.1.6.2,1.3.2,1.9v24.9c0,.6-.1,1.2-.2,1.9-.1.6-.3,1.1-.5,1.7-.3.5-.6,1-1,1.4s-.9.8-1.4,1c-.5.3-1.1.5-1.7.5-.6.1-1.2.2-1.9.2H8.4Z"/>
      </g>
      <g id="_Group_" data-name=" Group ">
        <g id="_Group_2" data-name=" Group 2">
          <g id="_Group_3" data-name=" Group 3">
            <path id="_Path_" data-name=" Path " class="cls-1" d="m25,19.9c0-1.8.9-3.4,2.5-4.3-1-1.4-2.5-2.2-4.2-2.2-1.7-.2-3.4,1-4.3,1s-2.3-1-3.8-1c-1.9.1-3.7,1.1-4.7,2.8-2,3.5-.5,8.6,1.4,11.4,1,1.4,2.1,2.9,3.6,2.9,1.4-.1,2-.9,3.7-.9s2.2.9,3.7.9,2.5-1.4,3.5-2.8c.7-1,1.2-2.1,1.6-3.2-1.8-.8-3-2.6-3-4.6Z"/>
            <path id="_Path_2" data-name=" Path 2" class="cls-1" d="m22.2,11.5c.8-1,1.3-2.3,1.2-3.6-1.4.1-2.6.7-3.4,1.7s-1.3,2.2-1.2,3.5c1.3,0,2.5-.6,3.4-1.6Z"/>
          </g>
        </g>
      </g>
    </g>
    <g>
      <path class="cls-1" d="m37.8,8.7c1.5-.1,2.7,1,2.8,2.4v.5c0,1.9-1,3-2.8,3h-2.2v-6h2.2v.1Zm-1.2,5.2h1.1c1,.1,1.9-.7,2-1.8v-.4c.1-1-.6-2-1.6-2.1h-1.5v4.3Z"/>
      <path class="cls-1" d="m41.7,12.4c-.1-1.2.7-2.2,1.9-2.3s2.2.7,2.3,1.9v.4c.1,1.2-.7,2.2-1.9,2.3s-2.2-.7-2.3-1.9v-.4Zm3.3,0c0-1-.4-1.5-1.2-1.5s-1.2.6-1.2,1.5c0,1,.4,1.6,1.2,1.6s1.2-.6,1.2-1.6h0Z"/>
      <path class="cls-1" d="m51.6,14.7h-.9l-.9-3.3h-.1l-.9,3.3h-.9l-1.2-4.5h.9l.8,3.4h.1l.9-3.4h.9l.9,3.4h.1l.8-3.4h.9l-1.4,4.5Z"/>
      <path class="cls-1" d="m53.9,10.2h.9v.7h.1c.2-.5.8-.8,1.3-.8.8-.1,1.5.5,1.6,1.4v3.2h-.9v-2.7c0-.7-.3-1.1-1-1.1-.6,0-1.1.4-1.1,1v2.8h-.9v-4.5Z"/>
      <path class="cls-1" d="m59.1,8.4h.9v6.3h-.9v-6.3Z"/>
      <path class="cls-1" d="m61.2,12.4c-.1-1.2.7-2.2,1.9-2.3s2.2.7,2.3,1.9v.4c.1,1.2-.7,2.2-1.9,2.3s-2.2-.7-2.3-1.9v-.4Zm3.4,0c0-1-.4-1.5-1.2-1.5s-1.2.6-1.2,1.5c0,1,.4,1.6,1.2,1.6.7,0,1.2-.6,1.2-1.6Z"/>
      <path class="cls-1" d="m66.4,13.4c0-.8.6-1.3,1.7-1.3l1.2-.1v-.4c0-.5-.3-.7-.9-.7-.5,0-.8.2-.9.5h-.9c.1-.8.8-1.3,1.8-1.3,1.1,0,1.8.6,1.8,1.5v3.1h-.9v-.6h-.1c-.3.5-.8.7-1.4.7-.7.1-1.4-.5-1.5-1.2q.1-.1.1-.2Zm2.9-.4v-.4l-1.1.1c-.6,0-.9.3-.9.6,0,.4.4.6.8.6.6.2,1.1-.2,1.2-.9q0,.1,0,0Z"/>
      <path class="cls-1" d="m71.3,12.4c0-1.4.7-2.3,1.9-2.3.6,0,1.1.3,1.4.8h.1v-2.5h.9v6.3h-.9v-.7h-.1c-.3.5-.8.8-1.4.8-1.1,0-1.9-.9-1.9-2.4Zm1,0c0,1,.5,1.5,1.2,1.5s1.2-.6,1.2-1.5-.5-1.5-1.2-1.5c-.8,0-1.2.6-1.2,1.5h0Z"/>
    </g>
  </g>
  <g class="cls-3">
    <path class="cls-1" d="m35.59,19.59h1.56l5.6,8.06h.05v-8.06h1.68v10.9h-1.56l-5.61-8.07h-.05v8.07h-1.68v-10.9Z"/>
    <path class="cls-1" d="m45.95,26.55h0c0-2.49,1.44-4.15,3.66-4.15s3.6,1.6,3.6,3.99v.55h-5.63c.03,1.5.85,2.38,2.15,2.38.97,0,1.61-.5,1.81-1.09l.02-.06h1.55l-.02.08c-.26,1.26-1.48,2.41-3.41,2.41-2.33,0-3.75-1.59-3.75-4.1Zm1.65-.77h3.99c-.14-1.38-.91-2.05-1.97-2.05s-1.87.72-2.02,2.05Z"/>
    <path class="cls-1" d="m53.84,22.54h1.63l1.45,6.26h.03l1.65-6.26h1.57l1.66,6.26h.04l1.45-6.26h1.62l-2.17,7.95h-1.7l-1.67-5.95h-.04l-1.65,5.95h-1.68l-2.18-7.95Z"/>
    <path class="cls-1" d="m65.59,28.22v-.07s1.61,0,1.61,0v.08c.17.73.71,1.16,1.71,1.16s1.57-.41,1.57-1.05h0c0-.52-.29-.82-1.14-1.02l-1.3-.29c-1.51-.35-2.26-1.07-2.26-2.23h0c0-1.43,1.24-2.4,3.07-2.4s3.01,1.05,3.1,2.4v.09s-1.53,0-1.53,0v-.05c-.11-.7-.65-1.18-1.57-1.18s-1.43.42-1.43,1.05h0c0,.5.32.83,1.18,1.04l1.29.29c1.62.38,2.24,1.02,2.24,2.16h0c0,1.46-1.36,2.46-3.23,2.46-1.99,0-3.15-.98-3.32-2.43Z"/>
    <path class="cls-1" d="m73.41,22.54h1.63v1.37h.04c.48-.94,1.35-1.52,2.48-1.52,2.02,0,3.32,1.59,3.32,4.12h0c0,2.54-1.31,4.13-3.3,4.13-1.12,0-2.04-.57-2.51-1.5h-.04v3.98h-1.63v-10.59Zm5.82,3.98h0c0-1.7-.81-2.73-2.08-2.73s-2.11,1.07-2.11,2.73h0c0,1.65.88,2.73,2.11,2.73s2.08-1.04,2.08-2.72Z"/>
    <path class="cls-1" d="m81.83,28.23h0c0-1.4,1.07-2.24,2.95-2.36l2.16-.13v-.6c0-.88-.57-1.41-1.58-1.41-.94,0-1.53.45-1.66,1.08v.07h-1.56v-.08c.12-1.37,1.31-2.42,3.26-2.42s3.17,1.03,3.17,2.62v5.48h-1.64v-1.25h-.03c-.46.85-1.38,1.4-2.43,1.4-1.59,0-2.65-.97-2.65-2.4Zm3.1,1.1c1.15,0,2.02-.78,2.02-1.81v-.62l-1.94.12c-.98.06-1.53.49-1.53,1.16v.02c0,.7.57,1.13,1.45,1.13Z"/>
    <path class="cls-1" d="m90.17,22.54h1.63v1.37h.04c.48-.94,1.35-1.52,2.49-1.52,2.02,0,3.32,1.59,3.32,4.12h0c0,2.54-1.31,4.13-3.3,4.13-1.12,0-2.04-.57-2.51-1.5h-.04v3.98h-1.63v-10.59Zm5.82,3.98h0c0-1.7-.81-2.73-2.08-2.73s-2.11,1.07-2.11,2.73h0c0,1.65.88,2.73,2.11,2.73s2.08-1.04,2.08-2.72Z"/>
    <path class="cls-1" d="m98.56,26.55h0c0-2.49,1.43-4.15,3.66-4.15s3.6,1.6,3.6,3.99v.55h-5.63c.03,1.5.85,2.38,2.15,2.38.97,0,1.61-.5,1.81-1.09l.02-.06h1.55l-.02.08c-.26,1.26-1.48,2.41-3.41,2.41-2.33,0-3.75-1.59-3.75-4.1Zm1.65-.77h3.99c-.14-1.38-.91-2.05-1.97-2.05s-1.87.72-2.02,2.05Z"/>
    <path class="cls-1" d="m107.08,22.54h1.63v1.36h.04c.26-.93.92-1.51,1.83-1.51.23,0,.44.04.57.06v1.52c-.13-.05-.42-.09-.73-.09-1.05,0-1.7.69-1.7,1.87v4.74h-1.63v-7.95Z"/>
  </g>
</svg>