<?xml version="1.0" encoding="utf-8"?>
<!-- Generator: Adobe Illustrator 28.0.0, SVG Export Plug-In . SVG Version: 6.00 Build 0)  -->
<svg version="1.1" id="livetype" xmlns="http://www.w3.org/2000/svg" xmlns:xlink="http://www.w3.org/1999/xlink" x="0px" y="0px"
	 viewBox="0 0 119.7 40.3" style="enable-background:new 0 0 119.7 40.3;" xml:space="preserve">
<style type="text/css">
	.st0{fill:#B7B7B7;}
	.st1{fill:#FFFFFF;}
	.st2{enable-background:new    ;}
</style>
<g>
	<g>
		<g>
			<path class="st0" d="M110.1,0H9.5C9.2,0,8.8,0,8.4,0C8.1,0,7.8,0,7.5,0c-0.7,0-1.3,0.1-2,0.2C4.8,0.3,4.2,0.5,3.6,0.8
				C3,1.1,2.5,1.5,2,2C1.5,2.5,1.1,3,0.8,3.6C0.5,4.2,0.3,4.8,0.2,5.5C0.1,6.2,0,6.8,0,7.5c0,0.3,0,0.6,0,0.9v23.1
				c0,0.3,0,0.6,0,0.9c0,0.7,0.1,1.3,0.2,2c0.1,0.7,0.3,1.3,0.6,1.9C1.1,37,1.5,37.5,2,38c0.5,0.5,1,0.9,1.6,1.2
				c0.6,0.3,1.2,0.5,1.9,0.6c0.7,0.1,1.3,0.2,2,0.2c0.3,0,0.6,0,0.9,0c0.4,0,0.7,0,1.1,0h100.6c0.4,0,0.7,0,1.1,0c0.3,0,0.6,0,0.9,0
				c0.7,0,1.3-0.1,2-0.2c0.7-0.1,1.3-0.3,1.9-0.6c0.6-0.3,1.1-0.7,1.6-1.2c0.5-0.5,0.9-1,1.2-1.6c0.3-0.6,0.5-1.2,0.6-1.9
				c0.1-0.7,0.2-1.3,0.2-2c0-0.3,0-0.6,0-0.9c0-0.4,0-0.7,0-1.1V9.5c0-0.4,0-0.7,0-1.1c0-0.3,0-0.6,0-0.9c0-0.7-0.1-1.3-0.2-2
				c-0.1-0.7-0.3-1.3-0.6-1.9c-0.3-0.6-0.7-1.2-1.2-1.6s-1-0.9-1.6-1.2c-0.6-0.3-1.2-0.5-1.9-0.6c-0.7-0.1-1.3-0.2-2-0.2
				c-0.3,0-0.6,0-0.9,0C110.8,0,110.5,0,110.1,0L110.1,0L110.1,0z"/>
			<path d="M8.4,39.1c-0.3,0-0.6,0-0.9,0c-0.6,0-1.2,0-1.9-0.2c-0.6-0.1-1.2-0.3-1.7-0.5c-0.5-0.3-1-0.6-1.4-1s-0.8-0.9-1-1.4
				c-0.3-0.5-0.4-1-0.5-1.7c-0.1-0.7-0.1-1.4-0.2-1.9c0-0.2,0-0.9,0-0.9V8.4c0,0,0-0.7,0-0.9c0-0.5,0-1.2,0.2-1.9
				C1.2,5.1,1.3,4.5,1.6,4c0.3-0.5,0.6-1,1-1.4s0.9-0.8,1.4-1c0.5-0.3,1.1-0.4,1.7-0.5C6.3,0.9,7,0.9,7.5,0.9h0.9l102.8,0h0.9
				c0.5,0,1.2,0.1,1.9,0.2c0.6,0.1,1.2,0.3,1.7,0.5c0.5,0.3,1,0.6,1.4,1c0.4,0.4,0.8,0.9,1,1.4c0.3,0.5,0.4,1.1,0.5,1.7
				c0.1,0.6,0.2,1.3,0.2,1.9c0,0.3,0,0.6,0,0.9c0,0.4,0,0.7,0,1.1v20.9c0,0.4,0,0.7,0,1.1c0,0.3,0,0.6,0,0.9c0,0.6-0.1,1.2-0.2,1.8
				c-0.1,0.6-0.3,1.2-0.5,1.7c-0.3,0.5-0.6,1-1,1.4c-0.4,0.4-0.9,0.8-1.4,1c-0.5,0.3-1.1,0.4-1.7,0.5c-0.6,0.1-1.3,0.2-1.9,0.2
				c-0.3,0-0.6,0-0.9,0h-1.1L8.4,39.1L8.4,39.1z"/>
		</g>
		<g>
			<path class="st1" d="M24.8,20.3c0-2.8,2.2-4.1,2.4-4.1c-1.3-1.9-3.3-2.1-4-2.2c-1.7-0.2-3.3,1-4.2,1s-2.2-1-3.6-1
				c-1.8,0-3.5,1.1-4.5,2.7c-1.9,3.4-0.5,8.3,1.4,11c0.9,1.3,2,2.8,3.4,2.8c1.4-0.1,1.9-0.9,3.6-0.9s2.1,0.9,3.6,0.9
				c1.5,0,2.4-1.3,3.3-2.7c1.1-1.5,1.5-3,1.5-3.1C27.7,24.7,24.8,23.6,24.8,20.3L24.8,20.3z"/>
			<path class="st1" d="M22,12.2c0.8-0.9,1.3-2.2,1.1-3.5c-1.1,0.1-2.4,0.8-3.2,1.7c-0.7,0.8-1.3,2.1-1.1,3.4
				C20,13.8,21.3,13.1,22,12.2z"/>
		</g>
	</g>
	<g>
		<path class="st1" d="M37.8,8.7c1.8,0,2.8,1.1,2.8,3s-1,3-2.8,3h-2.2v-6L37.8,8.7L37.8,8.7z M36.6,13.8h1.1c1.2,0,2-0.8,2-2.2
			s-0.7-2.1-2-2.1h-1.1C36.6,9.6,36.6,13.8,36.6,13.8z"/>
		<path class="st1" d="M41.7,12.4c0-1.4,0.8-2.3,2.1-2.3s2.1,0.9,2.1,2.3s-0.8,2.3-2.1,2.3S41.7,13.9,41.7,12.4z M45,12.4
			c0-1-0.4-1.6-1.2-1.6s-1.2,0.6-1.2,1.6S43,14,43.8,14S45,13.4,45,12.4z"/>
		<path class="st1" d="M51.6,14.7h-0.9l-0.9-3.3h-0.1l-0.9,3.3h-0.9l-1.2-4.5h0.9l0.8,3.4h0.1l0.9-3.4h0.8l0.9,3.4h0.1l0.8-3.4h0.9
			L51.6,14.7L51.6,14.7z"/>
		<path class="st1" d="M53.8,10.2h0.9v0.7h0.1c0.2-0.5,0.7-0.8,1.3-0.8c1,0,1.6,0.6,1.6,1.7v2.9h-0.9V12c0-0.7-0.3-1.1-1-1.1
			s-1.1,0.4-1.1,1.1v2.6h-0.9V10.2L53.8,10.2z"/>
		<path class="st1" d="M59.1,8.4H60v6.3h-0.9V8.4z"/>
		<path class="st1" d="M61.2,12.4c0-1.4,0.8-2.3,2.1-2.3c1.3,0,2.1,0.9,2.1,2.3s-0.8,2.3-2.1,2.3S61.2,13.9,61.2,12.4z M64.6,12.4
			c0-1-0.4-1.6-1.2-1.6s-1.2,0.6-1.2,1.6s0.4,1.6,1.2,1.6S64.6,13.4,64.6,12.4z"/>
		<path class="st1" d="M66.4,13.4c0-0.8,0.6-1.3,1.7-1.3l1.2-0.1v-0.4c0-0.5-0.3-0.7-0.9-0.7c-0.5,0-0.8,0.2-0.9,0.5h-0.9
			c0.1-0.8,0.8-1.3,1.8-1.3c1.1,0,1.8,0.6,1.8,1.5v3.1h-0.9v-0.6h-0.1c-0.3,0.4-0.8,0.7-1.3,0.7C67,14.8,66.4,14.3,66.4,13.4
			L66.4,13.4z M69.3,13v-0.4l-1.1,0.1c-0.6,0-0.9,0.2-0.9,0.6s0.3,0.6,0.8,0.6C68.8,14,69.3,13.6,69.3,13z"/>
		<path class="st1" d="M71.3,12.4c0-1.4,0.7-2.3,1.9-2.3c0.6,0,1.1,0.3,1.4,0.8h0.1V8.4h0.9v6.3h-0.8V14h-0.1
			c-0.3,0.5-0.8,0.8-1.4,0.8C72.1,14.8,71.4,13.9,71.3,12.4L71.3,12.4z M72.3,12.4c0,1,0.4,1.5,1.2,1.5s1.2-0.6,1.2-1.5
			s-0.5-1.5-1.2-1.5S72.3,11.5,72.3,12.4z"/>
		<path class="st1" d="M79.2,12.4c0-1.4,0.8-2.3,2.1-2.3s2.1,0.9,2.1,2.3s-0.8,2.3-2.1,2.3S79.2,13.9,79.2,12.4z M82.6,12.4
			c0-1-0.4-1.6-1.2-1.6s-1.2,0.6-1.2,1.6s0.4,1.6,1.2,1.6S82.6,13.4,82.6,12.4z"/>
		<path class="st1" d="M84.7,10.2h0.9v0.7h0.1c0.2-0.5,0.7-0.8,1.3-0.8c1,0,1.6,0.6,1.6,1.7v2.9h-0.9V12c0-0.7-0.3-1.1-1-1.1
			s-1.1,0.4-1.1,1.1v2.6h-0.9L84.7,10.2L84.7,10.2z"/>
		<path class="st1" d="M93.5,9.1v1.1h1V11h-1v2.3c0,0.5,0.2,0.7,0.6,0.7c0.1,0,0.2,0,0.3,0v0.7c-0.1,0-0.3,0.1-0.5,0.1
			c-1,0-1.4-0.4-1.4-1.2V11h-0.7v-0.8h0.7V9.1L93.5,9.1L93.5,9.1z"/>
		<path class="st1" d="M95.7,8.4h0.9v2.5h0.1c0.2-0.5,0.7-0.8,1.4-0.8c1,0,1.6,0.6,1.6,1.7v2.9h-0.9V12c0-0.7-0.3-1.1-1-1.1
			c-0.7,0-1.1,0.5-1.1,1.1v2.6h-0.9C95.7,14.7,95.7,8.4,95.7,8.4z"/>
		<path class="st1" d="M104.8,13.5c-0.2,0.8-0.9,1.3-1.9,1.3c-1.3,0-2.1-0.9-2.1-2.3s0.8-2.3,2.1-2.3s2,0.9,2,2.3v0.3h-3.2v0.1
			c0,0.8,0.5,1.3,1.2,1.3c0.5,0,0.9-0.2,1.1-0.6L104.8,13.5L104.8,13.5z M101.6,12h2.3c0-0.7-0.4-1.2-1.1-1.2S101.7,11.3,101.6,12
			L101.6,12z"/>
	</g>
</g>
<g class="st2">
	<path class="st1" d="M38.9,19.6H35v-1.4h9.3v1.4h-3.9v10.9h-1.5V19.6z"/>
</g>
<g class="st2">
	<path class="st1" d="M42.8,26.1L42.8,26.1c0-2.8,1.6-4.6,4-4.6s3.9,1.8,3.9,4.5v0.5h-6.4c0,1.8,1,2.9,2.6,2.9
		c1.1,0,1.9-0.6,2.2-1.3l0-0.1h1.5l0,0.1c-0.3,1.5-1.7,2.6-3.7,2.6C44.4,30.7,42.8,28.9,42.8,26.1z M44.4,25.3h4.9
		c-0.1-1.7-1.1-2.5-2.4-2.5C45.5,22.8,44.5,23.6,44.4,25.3z"/>
	<path class="st1" d="M51.8,28L51.8,28l1.5-0.1l0,0.1c0.2,0.9,0.8,1.4,2.1,1.4c1.2,0,1.9-0.5,1.9-1.3v0c0-0.6-0.3-1-1.3-1.2
		l-1.4-0.3c-1.7-0.4-2.5-1.2-2.5-2.5v0c0-1.5,1.3-2.6,3.3-2.6c1.9,0,3.2,1.1,3.3,2.6l0,0.1h-1.4l0-0.1c-0.1-0.9-0.8-1.4-1.9-1.4
		c-1.1,0-1.7,0.5-1.7,1.3v0c0,0.6,0.4,1,1.4,1.3l1.4,0.3c1.8,0.4,2.4,1.1,2.4,2.4v0c0,1.6-1.5,2.6-3.5,2.6
		C53.3,30.7,52,29.6,51.8,28z"/>
	<path class="st1" d="M60.8,28.2v-5.4h-1.3v-1.2h1.3v-2.4h1.5v2.4h1.7v1.2h-1.7v5.4c0,0.9,0.4,1.2,1.2,1.2c0.2,0,0.3,0,0.5,0v1.2
		c-0.2,0-0.5,0.1-0.8,0.1C61.6,30.7,60.8,29.9,60.8,28.2z"/>
	<path class="st1" d="M65.9,18.2h7.5v1.4h-5.9v4.2h5.5v1.4h-5.5v5.3h-1.5V18.2z"/>
	<path class="st1" d="M75,18.2h1.5v12.3H75V18.2z"/>
	<path class="st1" d="M78.3,19.2c0-0.5,0.4-0.9,0.9-0.9c0.5,0,0.9,0.4,0.9,0.9c0,0.5-0.4,0.9-0.9,0.9C78.8,20.1,78.3,19.7,78.3,19.2
		z M78.5,21.6H80v8.9h-1.5V21.6z"/>
	<path class="st1" d="M81.9,31.3L81.9,31.3l1.5-0.1l0,0.1c0.3,0.6,1.1,1,2.3,1c1.6,0,2.5-0.9,2.5-2.2V29h0c-0.5,1-1.6,1.6-2.8,1.6
		c-2.2,0-3.8-1.8-3.8-4.6v0c0-2.8,1.5-4.6,3.8-4.6c1.3,0,2.2,0.7,2.8,1.7h0v-1.5h1.5v8.6c0,2.1-1.5,3.4-3.9,3.4
		C83.6,33.7,82.2,32.6,81.9,31.3z M88.2,26L88.2,26c0-2-1-3.2-2.5-3.2c-1.6,0-2.6,1.3-2.6,3.2v0c0,2,1,3.3,2.6,3.3
		C87.2,29.3,88.2,28,88.2,26z"/>
	<path class="st1" d="M91.7,18.2h1.5V23h0c0.5-1,1.4-1.6,2.8-1.6c1.9,0,3.2,1.5,3.2,3.6v5.4h-1.5v-5.2c0-1.6-0.8-2.6-2.2-2.6
		c-1.4,0-2.3,1-2.3,2.6v5.2h-1.5V18.2z"/>
	<path class="st1" d="M101.5,28.2v-5.4h-1.3v-1.2h1.3v-2.4h1.5v2.4h1.7v1.2h-1.7v5.4c0,0.9,0.4,1.2,1.2,1.2c0.2,0,0.4,0,0.5,0v1.2
		c-0.2,0-0.5,0.1-0.8,0.1C102.3,30.7,101.5,29.9,101.5,28.2z"/>
</g>
</svg>
